<svg xmlns="http://www.w3.org/2000/svg" viewBox="0 0 24 24"><title>icon-meta-extension</title><path d="M18,12V8a2.151,2.151,0,0,0-2-2H12c-1-1,0-1,0-2a2.151,2.151,0,0,0-2-2A2.151,2.151,0,0,0,8,4C8,5,9,5,8,6H4A2.133,2.133,0,0,0,2.01,8L2,12c1,1,1,0,2,0a2.151,2.151,0,0,1,2,2,2.151,2.151,0,0,1-2,2c-1,0-1-1-2,0v4a2.151,2.151,0,0,0,2,2H8c1-1,0-1,0-2a2.151,2.151,0,0,1,2-2,2.151,2.151,0,0,1,2,2c0,1-1,1,0,2h4a2.151,2.151,0,0,0,2-2V16c1-1,1,0,2,0a2.151,2.151,0,0,0,2-2,2.151,2.151,0,0,0-2-2C19,12,19,13,18,12Z"/></svg>