<svg xmlns="http://www.w3.org/2000/svg" viewBox="0 0 24 24"><title>icon-action-event-publicise</title><path d="M20,4H18V2H16V4H8V2H6V4H4A2.151,2.151,0,0,0,2,6V20a2.151,2.151,0,0,0,2,2H20a2.151,2.151,0,0,0,2-2V6A2.151,2.151,0,0,0,20,4Zm0,16H4V8H20V20Zm-8-2a3.994,3.994,0,0,0,.157-7.984A1.061,1.061,0,0,0,12,10,4,4,0,0,0,12,18Zm-1-5a0.979,0.979,0,0,0,1-1,1,1,0,0,0,.977-0.823A3,3,0,0,1,14.385,12.2,0.9,0.9,0,0,0,14,13a0.979,0.979,0,0,1,1,1,2.982,2.982,0,0,1-1,2.22V16a0.979,0.979,0,0,0-1-1,0.979,0.979,0,0,0-1-1H11a0.979,0.979,0,0,1-1-1h1Zm-1,2a0.979,0.979,0,0,0,1,1v0.816A3,3,0,0,1,9,14,0.979,0.979,0,0,1,10,15Z"/></svg>