<svg xmlns="http://www.w3.org/2000/svg" viewBox="0 0 24 24"><title>icon-meta-book</title><path d="M21,7V6.5l-0.4-.3a8.6,8.6,0,0,0-4.748-1.533A7.173,7.173,0,0,0,12,5.788,7.174,7.174,0,0,0,8.148,4.667,8.6,8.6,0,0,0,3.4,6.2L3,6.5V7H2V19h8.116l0.47,0.47a2.151,2.151,0,0,0,2.828,0l0.47-.47H22V7H21Zm-1.347-.227C19.871,6.906,20,7,20,7V17l-0.06-.042-0.047-.032c-0.04-.027-0.09-0.059-0.153-0.1l-0.082-.051c-0.1-.059-0.206-0.123-0.341-0.2l-0.007,0c-0.128-.069-0.277-0.141-0.436-0.214-0.048-.022-0.1-0.043-0.15-0.066-0.127-.055-0.26-0.109-0.4-0.162-0.06-.022-0.117-0.044-0.18-0.066-0.2-.07-0.411-0.136-0.636-0.192l-0.011,0c-0.221-.055-0.456-0.1-0.7-0.133-0.072-.011-0.146-0.017-0.22-0.026-0.186-.021-0.376-0.033-0.571-0.038-0.053,0-.1-0.01-0.155-0.01s-0.1,0-.147.005l-0.149.005a6.067,6.067,0,0,0-1.249.191l-0.16.044A6.269,6.269,0,0,0,13,16.369V6.383c0.158-.082.317-0.169,0.474-0.235h0a6.09,6.09,0,0,1,2.378-.481A7.561,7.561,0,0,1,19.653,6.773Zm-9.126-.626h0C10.683,6.214,10.842,6.3,11,6.383v9.986a6.271,6.271,0,0,0-1.147-.456l-0.159-.044a6.067,6.067,0,0,0-1.25-.191L8.3,15.672c-0.049,0-.1-0.005-0.147-0.005s-0.1.009-.155,0.01c-0.2,0-.385.017-0.571,0.038-0.074.008-.147,0.015-0.219,0.025-0.242.035-.478,0.079-0.7,0.134h0C6.271,15.932,6.06,16,5.857,16.069c-0.062.021-.118,0.043-0.177,0.065-0.143.054-.278,0.107-0.406,0.163-0.05.022-.1,0.042-0.146,0.064a7.775,7.775,0,0,0-.785.414l-0.082.051c-0.064.04-.115,0.073-0.155,0.1l-0.045.03L4,17V7s0.129-.094.348-0.228a7.558,7.558,0,0,1,3.8-1.106A6.094,6.094,0,0,1,10.526,6.147Z"/></svg>