<svg xmlns="http://www.w3.org/2000/svg" viewBox="0 0 24 24"><title>icon-action-translate-on</title><path d="M11.13,12.716L9.349,10.935a16.325,16.325,0,0,0,1.543-2.482A11.719,11.719,0,0,0,11.85,6H14V4H9V2H7V4H2V6H4.15a11.719,11.719,0,0,0,.959,2.453,16.3,16.3,0,0,0,1.543,2.482L2.293,15.293l1.414,1.414L8,12.414,10.386,14.8ZM8,9.391A14.7,14.7,0,0,1,6.892,7.547,11.207,11.207,0,0,1,6.233,6H9.767a11.207,11.207,0,0,1-.659,1.547A14.747,14.747,0,0,1,8,9.391ZM17.062,8H14.938l-5,14h2.124l1.428-4H18.51l1.428,4h2.124ZM14.2,16L16,10.973,17.8,16H14.2Z"/></svg>