<?xml version="1.0" encoding="utf-8"?>
<!DOCTYPE svg PUBLIC "-//W3C//DTD SVG 1.1//EN" "http://www.w3.org/Graphics/SVG/1.1/DTD/svg11.dtd">
<svg version="1.1" xmlns="http://www.w3.org/2000/svg" xmlns:xlink="http://www.w3.org/1999/xlink" viewBox="0 0 64 64">
	<path fill="#5A5A5A" d="M28.225,44c0,2.085,1.69,3.775,3.775,3.775s3.775-1.69,3.775-3.775s-1.69-3.775-3.775-3.775
		S28.225,41.915,28.225,44C28.225,44,28.225,41.915,28.225,44z"/>
	<path fill="#5A5A5A" d="M28.225,32c0,2.085,1.69,3.775,3.775,3.775s3.775-1.69,3.775-3.775s-1.69-3.775-3.775-3.775
		S28.225,29.915,28.225,32C28.225,32,28.225,29.915,28.225,32z"/>
	<path fill="#5A5A5A" d="M28.225,20c0,2.085,1.69,3.775,3.775,3.775s3.775-1.69,3.775-3.775s-1.69-3.775-3.775-3.775
		S28.225,17.915,28.225,20C28.225,20,28.225,17.915,28.225,20z"/>
</svg>
