<svg xmlns="http://www.w3.org/2000/svg" viewBox="0 0 24 24"><title>icon-action-communicate-call-dial</title><path d="M22,18v2a0.979,0.979,0,0,1-1,1H17a0.979,0.979,0,0,1-1-1V18a0.979,0.979,0,0,1,1-1h4A0.979,0.979,0,0,1,22,18Zm-8-1H10a0.979,0.979,0,0,0-1,1v2a0.979,0.979,0,0,0,1,1h4a0.979,0.979,0,0,0,1-1V18A0.979,0.979,0,0,0,14,17ZM7,17H3a0.979,0.979,0,0,0-1,1v2a0.979,0.979,0,0,0,1,1H7a0.979,0.979,0,0,0,1-1V18A0.979,0.979,0,0,0,7,17Zm14-5H17a0.979,0.979,0,0,0-1,1v2a0.979,0.979,0,0,0,1,1h4a0.979,0.979,0,0,0,1-1V13A0.979,0.979,0,0,0,21,12Zm-7,0H10a0.979,0.979,0,0,0-1,1v2a0.979,0.979,0,0,0,1,1h4a0.979,0.979,0,0,0,1-1V13A0.979,0.979,0,0,0,14,12ZM7,12H3a0.979,0.979,0,0,0-1,1v2a0.979,0.979,0,0,0,1,1H7a0.979,0.979,0,0,0,1-1V13A0.979,0.979,0,0,0,7,12ZM21,7H17a0.979,0.979,0,0,0-1,1v2a0.979,0.979,0,0,0,1,1h4a0.979,0.979,0,0,0,1-1V8A0.979,0.979,0,0,0,21,7ZM14,7H10A0.979,0.979,0,0,0,9,8v2a0.979,0.979,0,0,0,1,1h4a0.979,0.979,0,0,0,1-1V8A0.979,0.979,0,0,0,14,7ZM7,7H3A0.979,0.979,0,0,0,2,8v2a0.979,0.979,0,0,0,1,1H7a0.979,0.979,0,0,0,1-1V8A0.979,0.979,0,0,0,7,7ZM21,2H17a0.979,0.979,0,0,0-1,1V5a0.979,0.979,0,0,0,1,1h4a0.979,0.979,0,0,0,1-1V3A0.979,0.979,0,0,0,21,2ZM14,2H10A0.979,0.979,0,0,0,9,3V5a0.979,0.979,0,0,0,1,1h4a0.979,0.979,0,0,0,1-1V3A0.979,0.979,0,0,0,14,2ZM7,2H3A0.979,0.979,0,0,0,2,3V5A0.979,0.979,0,0,0,3,6H7A0.979,0.979,0,0,0,8,5V3A0.979,0.979,0,0,0,7,2Z"/></svg>