<svg xmlns="http://www.w3.org/2000/svg" viewBox="0 0 24 24"><title>icon-action-format-list-ordered</title><path d="M22,7H9V5H22V7Zm0,6H9V11H22v2Zm0,6H9V17H22v2ZM7,7.5A0.5,0.5,0,1,1,6.5,7,0.5,0.5,0,0,1,7,7.5ZM6.5,13a0.5,0.5,0,1,0,.5.5A0.5,0.5,0,0,0,6.5,13Zm0,6a0.5,0.5,0,1,0,.5.5A0.5,0.5,0,0,0,6.5,19Zm-2-5h-2a0.5,0.5,0,0,1-.354-0.854L3.793,11.5l-0.5-.5H2.5a0.5,0.5,0,0,1,0-1h1a0.5,0.5,0,0,1,.354.146l1,1a0.5,0.5,0,0,1,0,.707L3.707,13H4.5A0.5,0.5,0,0,1,4.5,14ZM5,19.5v-1a0.5,0.5,0,0,0-.276-0.447L4.618,18l0.105-.053A0.5,0.5,0,0,0,5,17.5v-1A0.5,0.5,0,0,0,4.5,16h-2a0.5,0.5,0,0,0,0,1H4v0.191l-0.724.361a0.5,0.5,0,0,0,0,.895L4,18.809V19H2.5a0.5,0.5,0,0,0,0,1h2A0.5,0.5,0,0,0,5,19.5Zm0-12A0.5,0.5,0,0,0,4.5,7H4V4.5a0.5,0.5,0,0,0-.854-0.354l-1,1a0.5,0.5,0,0,0,.707.707L3,5.707V7H2.5a0.5,0.5,0,0,0,0,1h2A0.5,0.5,0,0,0,5,7.5Z"/></svg>