<svg xmlns="http://www.w3.org/2000/svg" viewBox="0 0 24 24"><title>icon-meta-book-chapter</title><path d="M18,8.02v2a6.723,6.723,0,0,0-3-.291v-2A6.723,6.723,0,0,1,18,8.02ZM22,7V19H13.884l-0.47.47a2.151,2.151,0,0,1-2.828,0L10.116,19H2V7H3V6.5l0.4-.3A8.6,8.6,0,0,1,8.148,4.667,7.174,7.174,0,0,1,12,5.788a7.173,7.173,0,0,1,3.852-1.122A8.6,8.6,0,0,1,20.6,6.2L21,6.5V7h1ZM11,6.383c-0.158-.082-0.317-0.169-0.474-0.235h0A6.073,6.073,0,0,0,9,5.733V13L7.5,11.5,6,13V6.023a8.072,8.072,0,0,0-1.652.75C4.129,6.906,4,7,4,7V17l0.061-.043,0.045-.03c0.04-.027.091-0.06,0.155-0.1l0.082-.051a7.775,7.775,0,0,1,.785-0.414c0.047-.022.1-0.042,0.146-0.064,0.128-.056.263-0.11,0.406-0.163,0.059-.022.116-0.044,0.177-0.065,0.2-.07.414-0.137,0.641-0.194h0c0.222-.055.458-0.1,0.7-0.134,0.072-.011.146-0.017,0.219-0.025,0.186-.021.376-0.033,0.571-0.038,0.053,0,.1-0.01.155-0.01s0.1,0,.147.005l0.149,0.005a6.067,6.067,0,0,1,1.25.191l0.159,0.044A6.271,6.271,0,0,1,11,16.369V6.383ZM20,7s-0.129-.094-0.347-0.227a7.561,7.561,0,0,0-3.8-1.106,6.09,6.09,0,0,0-2.378.481h0C13.317,6.214,13.158,6.3,13,6.383v9.986a6.269,6.269,0,0,1,1.146-.456l0.16-.044a6.067,6.067,0,0,1,1.249-.191l0.149-.005c0.049,0,.1-0.005.147-0.005s0.1,0.009.155,0.01c0.2,0,.385.017,0.571,0.038,0.074,0.008.148,0.015,0.22,0.026,0.241,0.035.477,0.078,0.7,0.133l0.011,0c0.225,0.057.435,0.123,0.636,0.192,0.063,0.022.12,0.043,0.18,0.066,0.142,0.053.276,0.106,0.4,0.162,0.051,0.022.1,0.043,0.15,0.066,0.159,0.073.307,0.146,0.436,0.214l0.007,0c0.134,0.072.244,0.136,0.341,0.2l0.082,0.051c0.063,0.04.113,0.072,0.153,0.1l0.047,0.032L20,17V7Z"/></svg>