<svg xmlns="http://www.w3.org/2000/svg" viewBox="0 0 24 24"><title>icon-action-file-attachments-view</title><path d="M18,4H17.939A8.975,8.975,0,0,1,18,5V19.915a0.4,0.4,0,0,1-.085.085H7.085A0.4,0.4,0,0,1,7,19.915V6.085A0.4,0.4,0,0,1,7.085,6H12V5a1.624,1.624,0,0,0-.211-0.958A0.65,0.65,0,0,0,11.5,4H9.111A2.283,2.283,0,0,1,11.5,2C13.756,2,14,4.1,14,5V15a1.17,1.17,0,0,1-1,1,1.17,1.17,0,0,1-1-1V8H10v7a3.16,3.16,0,0,0,3,3,3.16,3.16,0,0,0,3-3V5c0-2.489-1.392-5-4.5-5A4.343,4.343,0,0,0,7.079,4H7A2.151,2.151,0,0,0,5,6V20a2.151,2.151,0,0,0,2,2H18a2.151,2.151,0,0,0,2-2V6A2.151,2.151,0,0,0,18,4Z"/></svg>