<svg xmlns="http://www.w3.org/2000/svg" viewBox="0 0 24 24"><title>icon-action-format-fill-gradient-alt</title><path d="M6,10H4V8H6v2ZM2,10v2H4V10H2Zm10,2V10H10v2h2ZM6,12H4v2H6V12Zm16,2V12H20v2h2ZM3,6H2V7H3V6Zm5,6V10H6v2H8Zm4,0v2h2V12H12Zm6-4H16v2h2V8ZM8,12v2h2V12H8Zm2-4H8v2h2V8Zm4,0H12v2h2V8Zm2,4V10H14v2h2Zm0,2h2V12H16v2Zm2,0h2v2h2v6H2V18H3V17H2V14H4v2H6V14H8v2h2V14h2v2h2V14h2v2h2V14ZM5,19H4v1H5V19Zm2-2H6v1H7V17Zm2,2H8v1H9V19Zm2-2H10v1h1V17Zm2,2H12v1h1V19Zm2-2H14v1h1V17Zm2,2H16v1h1V19Zm3,1h1V19H20v1Zm-1-3H18v1h1V17ZM19,7V6H18V7h1ZM15,7V6H14V7h1ZM11,7V6H10V7h1Zm9,3h2V8H20v2Zm-2,2h2V10H18v2ZM7,7V6H6V7H7Zm6-3H12V5h1V4Zm4,0H16V5h1V4ZM9,4H8V5H9V4ZM5,4H4V5H5V4ZM21,4H20V5h1V4Z"/></svg>